<svg id="visual" viewBox="0 0 900 900" width="900" height="900" xmlns="http://www.w3.org/2000/svg" xmlns:xlink="http://www.w3.org/1999/xlink" version="1.1"><g stroke-width="1" stroke-linejoin="bevel"><path d="M424 467L427 499L484 483Z" fill="#4b0d4d" stroke="#4b0d4d"></path><path d="M484 483L486 473L424 467Z" fill="#910b6a" stroke="#910b6a"></path><path d="M486 473L487 435L424 467Z" fill="#7f0d64" stroke="#7f0d64"></path><path d="M484 483L506 450L486 473Z" fill="#c90076" stroke="#c90076"></path><path d="M486 473L506 450L487 435Z" fill="#6d0e5d" stroke="#6d0e5d"></path><path d="M427 499L454 549L484 483Z" fill="#4b0d4d" stroke="#4b0d4d"></path><path d="M484 483L569 480L506 450Z" fill="#4b0d4d" stroke="#4b0d4d"></path><path d="M340 501L409 542L427 499Z" fill="#2d093a" stroke="#2d093a"></path><path d="M427 499L409 542L454 549Z" fill="#a3086f" stroke="#a3086f"></path><path d="M487 435L394 432L424 467Z" fill="#2d093a" stroke="#2d093a"></path><path d="M424 467L363 453L427 499Z" fill="#6d0e5d" stroke="#6d0e5d"></path><path d="M454 549L502 546L484 483Z" fill="#910b6a" stroke="#910b6a"></path><path d="M394 432L363 453L424 467Z" fill="#7f0d64" stroke="#7f0d64"></path><path d="M409 542L472 573L454 549Z" fill="#3c0b44" stroke="#3c0b44"></path><path d="M454 549L472 573L502 546Z" fill="#7f0d64" stroke="#7f0d64"></path><path d="M556 429L487 387L487 435Z" fill="#5c0e55" stroke="#5c0e55"></path><path d="M487 435L487 387L394 432Z" fill="#3c0b44" stroke="#3c0b44"></path><path d="M363 453L340 501L427 499Z" fill="#3c0b44" stroke="#3c0b44"></path><path d="M569 480L556 429L506 450Z" fill="#4b0d4d" stroke="#4b0d4d"></path><path d="M506 450L556 429L487 435Z" fill="#c90076" stroke="#c90076"></path><path d="M502 546L569 480L484 483Z" fill="#4b0d4d" stroke="#4b0d4d"></path><path d="M340 501L358 553L409 542Z" fill="#a3086f" stroke="#a3086f"></path><path d="M466 642L497 632L472 573Z" fill="#2d093a" stroke="#2d093a"></path><path d="M472 573L514 583L502 546Z" fill="#a3086f" stroke="#a3086f"></path><path d="M502 546L614 528L569 480Z" fill="#6d0e5d" stroke="#6d0e5d"></path><path d="M534 601L514 583L526 627Z" fill="#2d093a" stroke="#2d093a"></path><path d="M290 525L358 555L358 553Z" fill="#5c0e55" stroke="#5c0e55"></path><path d="M358 553L358 555L409 542Z" fill="#6d0e5d" stroke="#6d0e5d"></path><path d="M363 453L330 489L340 501Z" fill="#910b6a" stroke="#910b6a"></path><path d="M340 501L313 502L358 553Z" fill="#4b0d4d" stroke="#4b0d4d"></path><path d="M411 351L370 381L394 432Z" fill="#3c0b44" stroke="#3c0b44"></path><path d="M394 432L370 381L363 453Z" fill="#910b6a" stroke="#910b6a"></path><path d="M363 453L312 453L330 489Z" fill="#3c0b44" stroke="#3c0b44"></path><path d="M487 387L411 351L394 432Z" fill="#5c0e55" stroke="#5c0e55"></path><path d="M312 453L313 502L330 489Z" fill="#5c0e55" stroke="#5c0e55"></path><path d="M330 489L313 502L340 501Z" fill="#2d093a" stroke="#2d093a"></path><path d="M326 399L312 453L363 453Z" fill="#6d0e5d" stroke="#6d0e5d"></path><path d="M497 632L514 583L472 573Z" fill="#b60473" stroke="#b60473"></path><path d="M587 598L614 528L502 546Z" fill="#7f0d64" stroke="#7f0d64"></path><path d="M477 300L438 331L487 387Z" fill="#3c0b44" stroke="#3c0b44"></path><path d="M487 387L438 331L411 351Z" fill="#3c0b44" stroke="#3c0b44"></path><path d="M314 362L326 399L370 381Z" fill="#3c0b44" stroke="#3c0b44"></path><path d="M552 363L532 353L487 387Z" fill="#6d0e5d" stroke="#6d0e5d"></path><path d="M314 362L370 381L333 333Z" fill="#3c0b44" stroke="#3c0b44"></path><path d="M370 381L326 399L363 453Z" fill="#200530" stroke="#200530"></path><path d="M556 429L552 363L487 387Z" fill="#a3086f" stroke="#a3086f"></path><path d="M604 433L552 363L556 429Z" fill="#a3086f" stroke="#a3086f"></path><path d="M490 638L497 632L466 642Z" fill="#3c0b44" stroke="#3c0b44"></path><path d="M627 502L604 433L569 480Z" fill="#910b6a" stroke="#910b6a"></path><path d="M569 480L604 433L556 429Z" fill="#6d0e5d" stroke="#6d0e5d"></path><path d="M466 642L472 573L409 542Z" fill="#2d093a" stroke="#2d093a"></path><path d="M497 632L526 627L514 583Z" fill="#5c0e55" stroke="#5c0e55"></path><path d="M359 633L466 642L409 542Z" fill="#b60473" stroke="#b60473"></path><path d="M500 668L526 627L497 632Z" fill="#200530" stroke="#200530"></path><path d="M587 598L502 546L514 583Z" fill="#200530" stroke="#200530"></path><path d="M326 399L299 416L312 453Z" fill="#5c0e55" stroke="#5c0e55"></path><path d="M221 479L290 525L313 502Z" fill="#2d093a" stroke="#2d093a"></path><path d="M587 598L514 583L534 601Z" fill="#3c0b44" stroke="#3c0b44"></path><path d="M273 582L339 605L358 555Z" fill="#b60473" stroke="#b60473"></path><path d="M358 555L359 633L409 542Z" fill="#6d0e5d" stroke="#6d0e5d"></path><path d="M221 479L313 502L312 453Z" fill="#3c0b44" stroke="#3c0b44"></path><path d="M313 502L290 525L358 553Z" fill="#b60473" stroke="#b60473"></path><path d="M561 331L522 325L532 353Z" fill="#7f0d64" stroke="#7f0d64"></path><path d="M532 353L522 325L487 387Z" fill="#7f0d64" stroke="#7f0d64"></path><path d="M466 642L469 652L490 638Z" fill="#4b0d4d" stroke="#4b0d4d"></path><path d="M490 638L500 668L497 632Z" fill="#5c0e55" stroke="#5c0e55"></path><path d="M398 699L469 652L466 642Z" fill="#7f0d64" stroke="#7f0d64"></path><path d="M614 528L627 502L569 480Z" fill="#2d093a" stroke="#2d093a"></path><path d="M477 300L447 302L438 331Z" fill="#c90076" stroke="#c90076"></path><path d="M438 331L429 299L411 351Z" fill="#6d0e5d" stroke="#6d0e5d"></path><path d="M326 399L309 366L299 416Z" fill="#2d093a" stroke="#2d093a"></path><path d="M526 627L587 598L534 601Z" fill="#5c0e55" stroke="#5c0e55"></path><path d="M614 528L646 497L627 502Z" fill="#910b6a" stroke="#910b6a"></path><path d="M339 605L359 633L358 555Z" fill="#4b0d4d" stroke="#4b0d4d"></path><path d="M522 325L477 300L487 387Z" fill="#200530" stroke="#200530"></path><path d="M333 333L370 381L411 351Z" fill="#7f0d64" stroke="#7f0d64"></path><path d="M454 236L429 299L447 302Z" fill="#b60473" stroke="#b60473"></path><path d="M447 302L429 299L438 331Z" fill="#a3086f" stroke="#a3086f"></path><path d="M314 362L309 366L326 399Z" fill="#6d0e5d" stroke="#6d0e5d"></path><path d="M522 325L501 303L477 300Z" fill="#6d0e5d" stroke="#6d0e5d"></path><path d="M552 363L561 331L532 353Z" fill="#4b0d4d" stroke="#4b0d4d"></path><path d="M522 325L550 281L501 303Z" fill="#4b0d4d" stroke="#4b0d4d"></path><path d="M662 363L561 331L552 363Z" fill="#910b6a" stroke="#910b6a"></path><path d="M587 598L615 575L614 528Z" fill="#3c0b44" stroke="#3c0b44"></path><path d="M429 299L333 333L411 351Z" fill="#7f0d64" stroke="#7f0d64"></path><path d="M314 362L256 290L309 366Z" fill="#6d0e5d" stroke="#6d0e5d"></path><path d="M480 760L500 668L469 652Z" fill="#c90076" stroke="#c90076"></path><path d="M469 652L500 668L490 638Z" fill="#6d0e5d" stroke="#6d0e5d"></path><path d="M526 627L610 640L587 598Z" fill="#200530" stroke="#200530"></path><path d="M673 496L646 497L688 517Z" fill="#200530" stroke="#200530"></path><path d="M627 502L646 497L604 433Z" fill="#6d0e5d" stroke="#6d0e5d"></path><path d="M604 433L662 363L552 363Z" fill="#6d0e5d" stroke="#6d0e5d"></path><path d="M245 553L273 582L290 525Z" fill="#2d093a" stroke="#2d093a"></path><path d="M290 525L273 582L358 555Z" fill="#910b6a" stroke="#910b6a"></path><path d="M333 658L355 669L359 633Z" fill="#6d0e5d" stroke="#6d0e5d"></path><path d="M333 658L359 633L339 605Z" fill="#b60473" stroke="#b60473"></path><path d="M359 633L398 699L466 642Z" fill="#5c0e55" stroke="#5c0e55"></path><path d="M281 638L333 658L339 605Z" fill="#200530" stroke="#200530"></path><path d="M309 366L251 400L299 416Z" fill="#2d093a" stroke="#2d093a"></path><path d="M299 416L221 479L312 453Z" fill="#2d093a" stroke="#2d093a"></path><path d="M238 396L251 400L221 368Z" fill="#4b0d4d" stroke="#4b0d4d"></path><path d="M221 479L245 553L290 525Z" fill="#910b6a" stroke="#910b6a"></path><path d="M273 582L281 638L339 605Z" fill="#b60473" stroke="#b60473"></path><path d="M429 299L327 299L333 333Z" fill="#2d093a" stroke="#2d093a"></path><path d="M333 333L256 290L314 362Z" fill="#3c0b44" stroke="#3c0b44"></path><path d="M684 499L673 496L688 517Z" fill="#2d093a" stroke="#2d093a"></path><path d="M646 497L690 434L604 433Z" fill="#5c0e55" stroke="#5c0e55"></path><path d="M628 291L550 281L561 331Z" fill="#200530" stroke="#200530"></path><path d="M561 331L550 281L522 325Z" fill="#4b0d4d" stroke="#4b0d4d"></path><path d="M459 236L447 302L477 300Z" fill="#6d0e5d" stroke="#6d0e5d"></path><path d="M459 236L454 236L447 302Z" fill="#3c0b44" stroke="#3c0b44"></path><path d="M429 299L331 280L327 299Z" fill="#6d0e5d" stroke="#6d0e5d"></path><path d="M587 598L610 640L615 575Z" fill="#4b0d4d" stroke="#4b0d4d"></path><path d="M688 517L646 497L614 528Z" fill="#a3086f" stroke="#a3086f"></path><path d="M612 651L610 640L526 627Z" fill="#7f0d64" stroke="#7f0d64"></path><path d="M375 711L398 699L355 669Z" fill="#5c0e55" stroke="#5c0e55"></path><path d="M355 669L398 699L359 633Z" fill="#c90076" stroke="#c90076"></path><path d="M552 706L612 651L526 627Z" fill="#200530" stroke="#200530"></path><path d="M245 553L246 581L273 582Z" fill="#c90076" stroke="#c90076"></path><path d="M221 368L251 400L309 366Z" fill="#a3086f" stroke="#a3086f"></path><path d="M219 476L221 479L299 416Z" fill="#5c0e55" stroke="#5c0e55"></path><path d="M158 570L215 645L246 581Z" fill="#6d0e5d" stroke="#6d0e5d"></path><path d="M219 476L299 416L251 400Z" fill="#7f0d64" stroke="#7f0d64"></path><path d="M688 517L614 528L615 575Z" fill="#7f0d64" stroke="#7f0d64"></path><path d="M690 434L662 363L604 433Z" fill="#5c0e55" stroke="#5c0e55"></path><path d="M246 581L281 638L273 582Z" fill="#6d0e5d" stroke="#6d0e5d"></path><path d="M301 710L375 711L355 669Z" fill="#200530" stroke="#200530"></path><path d="M552 706L526 627L500 668Z" fill="#c90076" stroke="#c90076"></path><path d="M706 605L688 517L615 575Z" fill="#c90076" stroke="#c90076"></path><path d="M200 438L219 476L251 400Z" fill="#3c0b44" stroke="#3c0b44"></path><path d="M221 479L158 570L245 553Z" fill="#3c0b44" stroke="#3c0b44"></path><path d="M389 227L331 280L429 299Z" fill="#910b6a" stroke="#910b6a"></path><path d="M256 290L221 368L309 366Z" fill="#4b0d4d" stroke="#4b0d4d"></path><path d="M706 605L615 575L610 640Z" fill="#4b0d4d" stroke="#4b0d4d"></path><path d="M690 434L673 496L693 438Z" fill="#c90076" stroke="#c90076"></path><path d="M690 434L646 497L673 496Z" fill="#5c0e55" stroke="#5c0e55"></path><path d="M693 438L673 496L684 499Z" fill="#5c0e55" stroke="#5c0e55"></path><path d="M301 710L355 669L333 658Z" fill="#910b6a" stroke="#910b6a"></path><path d="M480 760L552 706L500 668Z" fill="#a3086f" stroke="#a3086f"></path><path d="M725 479L693 438L684 499Z" fill="#4b0d4d" stroke="#4b0d4d"></path><path d="M755 384L675 329L662 363Z" fill="#a3086f" stroke="#a3086f"></path><path d="M459 236L477 300L515 231Z" fill="#910b6a" stroke="#910b6a"></path><path d="M515 231L477 300L501 303Z" fill="#200530" stroke="#200530"></path><path d="M566 733L552 706L480 760Z" fill="#5c0e55" stroke="#5c0e55"></path><path d="M600 247L545 251L550 281Z" fill="#5c0e55" stroke="#5c0e55"></path><path d="M550 281L545 251L501 303Z" fill="#a3086f" stroke="#a3086f"></path><path d="M238 396L200 438L251 400Z" fill="#2d093a" stroke="#2d093a"></path><path d="M140 490L158 570L221 479Z" fill="#200530" stroke="#200530"></path><path d="M199 409L200 438L238 396Z" fill="#4b0d4d" stroke="#4b0d4d"></path><path d="M545 251L515 231L501 303Z" fill="#2d093a" stroke="#2d093a"></path><path d="M418 214L389 227L454 236Z" fill="#5c0e55" stroke="#5c0e55"></path><path d="M256 290L333 333L327 299Z" fill="#4b0d4d" stroke="#4b0d4d"></path><path d="M662 363L628 291L561 331Z" fill="#c90076" stroke="#c90076"></path><path d="M545 251L534 224L515 231Z" fill="#7f0d64" stroke="#7f0d64"></path><path d="M285 246L295 275L331 280Z" fill="#3c0b44" stroke="#3c0b44"></path><path d="M331 280L295 275L327 299Z" fill="#5c0e55" stroke="#5c0e55"></path><path d="M418 214L454 236L449 189Z" fill="#200530" stroke="#200530"></path><path d="M454 236L389 227L429 299Z" fill="#910b6a" stroke="#910b6a"></path><path d="M221 368L199 409L238 396Z" fill="#910b6a" stroke="#910b6a"></path><path d="M552 706L621 684L612 651Z" fill="#7f0d64" stroke="#7f0d64"></path><path d="M684 673L706 605L610 640Z" fill="#4b0d4d" stroke="#4b0d4d"></path><path d="M449 189L454 236L459 236Z" fill="#a3086f" stroke="#a3086f"></path><path d="M600 247L534 224L545 251Z" fill="#3c0b44" stroke="#3c0b44"></path><path d="M515 231L449 189L459 236Z" fill="#b60473" stroke="#b60473"></path><path d="M662 363L675 329L628 291Z" fill="#910b6a" stroke="#910b6a"></path><path d="M684 312L675 329L755 384Z" fill="#6d0e5d" stroke="#6d0e5d"></path><path d="M236 686L282 691L281 638Z" fill="#3c0b44" stroke="#3c0b44"></path><path d="M281 638L282 691L333 658Z" fill="#2d093a" stroke="#2d093a"></path><path d="M765 504L725 479L688 517Z" fill="#3c0b44" stroke="#3c0b44"></path><path d="M688 517L725 479L684 499Z" fill="#4b0d4d" stroke="#4b0d4d"></path><path d="M737 421L662 363L690 434Z" fill="#3c0b44" stroke="#3c0b44"></path><path d="M285 246L256 290L295 275Z" fill="#a3086f" stroke="#a3086f"></path><path d="M295 275L256 290L327 299Z" fill="#3c0b44" stroke="#3c0b44"></path><path d="M167 384L169 450L199 409Z" fill="#c90076" stroke="#c90076"></path><path d="M282 691L301 710L333 658Z" fill="#4b0d4d" stroke="#4b0d4d"></path><path d="M620 231L600 247L628 291Z" fill="#2d093a" stroke="#2d093a"></path><path d="M628 291L600 247L550 281Z" fill="#3c0b44" stroke="#3c0b44"></path><path d="M552 706L566 733L621 684Z" fill="#6d0e5d" stroke="#6d0e5d"></path><path d="M480 760L469 652L398 699Z" fill="#4b0d4d" stroke="#4b0d4d"></path><path d="M480 760L398 699L371 764Z" fill="#5c0e55" stroke="#5c0e55"></path><path d="M371 764L398 699L375 711Z" fill="#910b6a" stroke="#910b6a"></path><path d="M684 673L610 640L612 651Z" fill="#6d0e5d" stroke="#6d0e5d"></path><path d="M199 409L169 450L200 438Z" fill="#c90076" stroke="#c90076"></path><path d="M200 438L169 450L219 476Z" fill="#910b6a" stroke="#910b6a"></path><path d="M246 581L215 645L281 638Z" fill="#7f0d64" stroke="#7f0d64"></path><path d="M190 359L199 409L221 368Z" fill="#b60473" stroke="#b60473"></path><path d="M737 421L690 434L693 438Z" fill="#910b6a" stroke="#910b6a"></path><path d="M675 329L684 312L628 291Z" fill="#c90076" stroke="#c90076"></path><path d="M346 186L285 246L331 280Z" fill="#c90076" stroke="#c90076"></path><path d="M346 186L331 280L389 227Z" fill="#c90076" stroke="#c90076"></path><path d="M158 570L246 581L245 553Z" fill="#3c0b44" stroke="#3c0b44"></path><path d="M282 691L264 719L301 710Z" fill="#c90076" stroke="#c90076"></path><path d="M175 321L221 368L256 290Z" fill="#b60473" stroke="#b60473"></path><path d="M175 321L190 359L221 368Z" fill="#7f0d64" stroke="#7f0d64"></path><path d="M786 427L737 421L725 479Z" fill="#b60473" stroke="#b60473"></path><path d="M725 479L737 421L693 438Z" fill="#910b6a" stroke="#910b6a"></path><path d="M536 153L449 189L515 231Z" fill="#b60473" stroke="#b60473"></path><path d="M418 214L403 183L389 227Z" fill="#3c0b44" stroke="#3c0b44"></path><path d="M536 153L515 231L534 224Z" fill="#910b6a" stroke="#910b6a"></path><path d="M350 792L371 764L301 710Z" fill="#a3086f" stroke="#a3086f"></path><path d="M301 710L371 764L375 711Z" fill="#4b0d4d" stroke="#4b0d4d"></path><path d="M215 645L236 686L281 638Z" fill="#4b0d4d" stroke="#4b0d4d"></path><path d="M662 226L620 231L628 291Z" fill="#5c0e55" stroke="#5c0e55"></path><path d="M600 247L617 215L534 224Z" fill="#3c0b44" stroke="#3c0b44"></path><path d="M621 684L684 673L612 651Z" fill="#a3086f" stroke="#a3086f"></path><path d="M651 722L684 673L621 684Z" fill="#b60473" stroke="#b60473"></path><path d="M175 321L167 384L190 359Z" fill="#6d0e5d" stroke="#6d0e5d"></path><path d="M190 359L167 384L199 409Z" fill="#3c0b44" stroke="#3c0b44"></path><path d="M449 189L403 183L418 214Z" fill="#a3086f" stroke="#a3086f"></path><path d="M236 686L264 719L282 691Z" fill="#200530" stroke="#200530"></path><path d="M140 490L221 479L219 476Z" fill="#910b6a" stroke="#910b6a"></path><path d="M215 645L187 670L236 686Z" fill="#200530" stroke="#200530"></path><path d="M140 490L219 476L169 450Z" fill="#b60473" stroke="#b60473"></path><path d="M684 673L717 639L706 605Z" fill="#5c0e55" stroke="#5c0e55"></path><path d="M754 575L765 504L688 517Z" fill="#7f0d64" stroke="#7f0d64"></path><path d="M583 776L613 746L566 733Z" fill="#200530" stroke="#200530"></path><path d="M566 733L613 746L621 684Z" fill="#910b6a" stroke="#910b6a"></path><path d="M371 764L475 790L480 760Z" fill="#200530" stroke="#200530"></path><path d="M480 760L540 784L566 733Z" fill="#b60473" stroke="#b60473"></path><path d="M304 160L265 232L285 246Z" fill="#6d0e5d" stroke="#6d0e5d"></path><path d="M285 246L265 232L256 290Z" fill="#3c0b44" stroke="#3c0b44"></path><path d="M662 226L617 215L620 231Z" fill="#5c0e55" stroke="#5c0e55"></path><path d="M620 231L617 215L600 247Z" fill="#a3086f" stroke="#a3086f"></path><path d="M613 746L651 722L621 684Z" fill="#6d0e5d" stroke="#6d0e5d"></path><path d="M726 669L733 635L717 639Z" fill="#5c0e55" stroke="#5c0e55"></path><path d="M132 463L140 490L169 450Z" fill="#5c0e55" stroke="#5c0e55"></path><path d="M403 183L346 186L389 227Z" fill="#5c0e55" stroke="#5c0e55"></path><path d="M754 575L688 517L706 605Z" fill="#6d0e5d" stroke="#6d0e5d"></path><path d="M475 790L540 784L480 760Z" fill="#4b0d4d" stroke="#4b0d4d"></path><path d="M733 635L754 575L706 605Z" fill="#b60473" stroke="#b60473"></path><path d="M786 427L755 384L737 421Z" fill="#7f0d64" stroke="#7f0d64"></path><path d="M737 421L755 384L662 363Z" fill="#2d093a" stroke="#2d093a"></path><path d="M684 312L662 226L628 291Z" fill="#6d0e5d" stroke="#6d0e5d"></path><path d="M169 245L175 321L256 290Z" fill="#200530" stroke="#200530"></path><path d="M167 384L132 463L169 450Z" fill="#3c0b44" stroke="#3c0b44"></path><path d="M726 669L717 639L684 673Z" fill="#7f0d64" stroke="#7f0d64"></path><path d="M717 639L733 635L706 605Z" fill="#b60473" stroke="#b60473"></path><path d="M86 461L132 463L167 384Z" fill="#3c0b44" stroke="#3c0b44"></path><path d="M101 557L131 608L158 570Z" fill="#5c0e55" stroke="#5c0e55"></path><path d="M675 764L684 722L651 722Z" fill="#b60473" stroke="#b60473"></path><path d="M540 784L583 776L566 733Z" fill="#4b0d4d" stroke="#4b0d4d"></path><path d="M131 608L172 646L158 570Z" fill="#7f0d64" stroke="#7f0d64"></path><path d="M158 570L172 646L215 645Z" fill="#7f0d64" stroke="#7f0d64"></path><path d="M236 686L246 742L264 719Z" fill="#7f0d64" stroke="#7f0d64"></path><path d="M172 646L187 670L215 645Z" fill="#4b0d4d" stroke="#4b0d4d"></path><path d="M261 784L350 792L301 710Z" fill="#5c0e55" stroke="#5c0e55"></path><path d="M371 764L379 801L475 790Z" fill="#3c0b44" stroke="#3c0b44"></path><path d="M254 762L301 710L264 719Z" fill="#3c0b44" stroke="#3c0b44"></path><path d="M350 792L379 801L371 764Z" fill="#7f0d64" stroke="#7f0d64"></path><path d="M523 819L574 803L540 784Z" fill="#a3086f" stroke="#a3086f"></path><path d="M739 267L662 226L684 312Z" fill="#5c0e55" stroke="#5c0e55"></path><path d="M715 696L726 669L684 673Z" fill="#200530" stroke="#200530"></path><path d="M791 536L784 533L754 575Z" fill="#5c0e55" stroke="#5c0e55"></path><path d="M684 722L684 673L651 722Z" fill="#3c0b44" stroke="#3c0b44"></path><path d="M180 681L246 742L236 686Z" fill="#7f0d64" stroke="#7f0d64"></path><path d="M675 764L651 722L613 746Z" fill="#b60473" stroke="#b60473"></path><path d="M791 536L754 575L835 553Z" fill="#910b6a" stroke="#910b6a"></path><path d="M754 575L784 533L765 504Z" fill="#b60473" stroke="#b60473"></path><path d="M765 504L786 427L725 479Z" fill="#7f0d64" stroke="#7f0d64"></path><path d="M812 504L786 427L765 504Z" fill="#3c0b44" stroke="#3c0b44"></path><path d="M765 274L739 267L684 312Z" fill="#7f0d64" stroke="#7f0d64"></path><path d="M609 177L534 224L617 215Z" fill="#b60473" stroke="#b60473"></path><path d="M609 177L536 153L534 224Z" fill="#3c0b44" stroke="#3c0b44"></path><path d="M449 189L391 134L403 183Z" fill="#a3086f" stroke="#a3086f"></path><path d="M403 183L374 135L346 186Z" fill="#2d093a" stroke="#2d093a"></path><path d="M187 670L180 681L236 686Z" fill="#3c0b44" stroke="#3c0b44"></path><path d="M172 646L180 681L187 670Z" fill="#b60473" stroke="#b60473"></path><path d="M684 722L715 696L684 673Z" fill="#5c0e55" stroke="#5c0e55"></path><path d="M726 669L733 675L733 635Z" fill="#3c0b44" stroke="#3c0b44"></path><path d="M715 696L733 675L726 669Z" fill="#5c0e55" stroke="#5c0e55"></path><path d="M631 177L609 177L617 215Z" fill="#b60473" stroke="#b60473"></path><path d="M835 553L754 575L814 646Z" fill="#a3086f" stroke="#a3086f"></path><path d="M784 533L812 504L765 504Z" fill="#6d0e5d" stroke="#6d0e5d"></path><path d="M204 797L254 762L246 742Z" fill="#2d093a" stroke="#2d093a"></path><path d="M246 742L254 762L264 719Z" fill="#6d0e5d" stroke="#6d0e5d"></path><path d="M540 784L574 803L583 776Z" fill="#6d0e5d" stroke="#6d0e5d"></path><path d="M583 776L595 796L613 746Z" fill="#6d0e5d" stroke="#6d0e5d"></path><path d="M523 819L540 784L475 790Z" fill="#2d093a" stroke="#2d093a"></path><path d="M460 831L523 819L475 790Z" fill="#5c0e55" stroke="#5c0e55"></path><path d="M101 557L158 570L140 490Z" fill="#c90076" stroke="#c90076"></path><path d="M172 646L149 649L180 681Z" fill="#5c0e55" stroke="#5c0e55"></path><path d="M574 803L595 796L583 776Z" fill="#5c0e55" stroke="#5c0e55"></path><path d="M131 608L149 649L172 646Z" fill="#7f0d64" stroke="#7f0d64"></path><path d="M204 797L261 784L254 762Z" fill="#5c0e55" stroke="#5c0e55"></path><path d="M417 831L475 790L379 801Z" fill="#4b0d4d" stroke="#4b0d4d"></path><path d="M443 833L460 831L475 790Z" fill="#200530" stroke="#200530"></path><path d="M417 831L379 801L340 861Z" fill="#c90076" stroke="#c90076"></path><path d="M466 117L391 134L449 189Z" fill="#4b0d4d" stroke="#4b0d4d"></path><path d="M346 186L304 160L285 246Z" fill="#4b0d4d" stroke="#4b0d4d"></path><path d="M662 226L631 177L617 215Z" fill="#c90076" stroke="#c90076"></path><path d="M565 71L529 111L536 153Z" fill="#4b0d4d" stroke="#4b0d4d"></path><path d="M340 861L379 801L350 792Z" fill="#3c0b44" stroke="#3c0b44"></path><path d="M417 831L443 833L475 790Z" fill="#b60473" stroke="#b60473"></path><path d="M316 150L304 160L346 186Z" fill="#b60473" stroke="#b60473"></path><path d="M265 232L169 245L256 290Z" fill="#200530" stroke="#200530"></path><path d="M391 134L374 135L403 183Z" fill="#3c0b44" stroke="#3c0b44"></path><path d="M529 111L480 125L536 153Z" fill="#5c0e55" stroke="#5c0e55"></path><path d="M536 153L480 125L449 189Z" fill="#200530" stroke="#200530"></path><path d="M391 134L380 105L374 135Z" fill="#7f0d64" stroke="#7f0d64"></path><path d="M765 274L684 312L780 284Z" fill="#6d0e5d" stroke="#6d0e5d"></path><path d="M662 226L685 197L631 177Z" fill="#2d093a" stroke="#2d093a"></path><path d="M374 135L316 150L346 186Z" fill="#c90076" stroke="#c90076"></path><path d="M204 797L246 742L180 681Z" fill="#7f0d64" stroke="#7f0d64"></path><path d="M254 762L261 784L301 710Z" fill="#b60473" stroke="#b60473"></path><path d="M86 461L140 490L132 463Z" fill="#2d093a" stroke="#2d093a"></path><path d="M86 461L101 557L140 490Z" fill="#200530" stroke="#200530"></path><path d="M131 608L116 638L149 649Z" fill="#200530" stroke="#200530"></path><path d="M830 485L812 504L847 505Z" fill="#910b6a" stroke="#910b6a"></path><path d="M791 536L812 504L784 533Z" fill="#2d093a" stroke="#2d093a"></path><path d="M786 427L800 350L755 384Z" fill="#200530" stroke="#200530"></path><path d="M595 796L675 764L613 746Z" fill="#7f0d64" stroke="#7f0d64"></path><path d="M684 722L779 775L715 696Z" fill="#5c0e55" stroke="#5c0e55"></path><path d="M799 698L814 646L733 675Z" fill="#3c0b44" stroke="#3c0b44"></path><path d="M525 74L466 117L480 125Z" fill="#6d0e5d" stroke="#6d0e5d"></path><path d="M480 125L466 117L449 189Z" fill="#2d093a" stroke="#2d093a"></path><path d="M739 267L685 197L662 226Z" fill="#b60473" stroke="#b60473"></path><path d="M50 357L86 461L167 384Z" fill="#c90076" stroke="#c90076"></path><path d="M574 803L591 821L595 796Z" fill="#a3086f" stroke="#a3086f"></path><path d="M595 796L676 804L675 764Z" fill="#3c0b44" stroke="#3c0b44"></path><path d="M523 819L591 821L574 803Z" fill="#200530" stroke="#200530"></path><path d="M606 839L591 821L537 900Z" fill="#200530" stroke="#200530"></path><path d="M591 821L523 819L537 900Z" fill="#200530" stroke="#200530"></path><path d="M245 169L265 232L304 160Z" fill="#a3086f" stroke="#a3086f"></path><path d="M185 176L169 245L265 232Z" fill="#a3086f" stroke="#a3086f"></path><path d="M175 321L87 326L167 384Z" fill="#4b0d4d" stroke="#4b0d4d"></path><path d="M807 347L800 350L834 367Z" fill="#3c0b44" stroke="#3c0b44"></path><path d="M83 588L116 638L131 608Z" fill="#3c0b44" stroke="#3c0b44"></path><path d="M149 649L103 751L180 681Z" fill="#c90076" stroke="#c90076"></path><path d="M252 146L245 169L304 160Z" fill="#b60473" stroke="#b60473"></path><path d="M780 284L684 312L755 384Z" fill="#3c0b44" stroke="#3c0b44"></path><path d="M739 267L699 184L685 197Z" fill="#2d093a" stroke="#2d093a"></path><path d="M638 145L609 177L631 177Z" fill="#c90076" stroke="#c90076"></path><path d="M638 145L536 153L609 177Z" fill="#c90076" stroke="#c90076"></path><path d="M835 553L812 504L791 536Z" fill="#4b0d4d" stroke="#4b0d4d"></path><path d="M812 504L830 485L786 427Z" fill="#5c0e55" stroke="#5c0e55"></path><path d="M834 367L800 350L786 427Z" fill="#c90076" stroke="#c90076"></path><path d="M800 350L780 284L755 384Z" fill="#3c0b44" stroke="#3c0b44"></path><path d="M807 347L780 284L800 350Z" fill="#6d0e5d" stroke="#6d0e5d"></path><path d="M699 184L672 164L685 197Z" fill="#2d093a" stroke="#2d093a"></path><path d="M374 135L380 105L316 150Z" fill="#c90076" stroke="#c90076"></path><path d="M280 95L252 146L304 160Z" fill="#a3086f" stroke="#a3086f"></path><path d="M427 85L380 105L391 134Z" fill="#b60473" stroke="#b60473"></path><path d="M427 85L391 134L466 117Z" fill="#5c0e55" stroke="#5c0e55"></path><path d="M148 206L145 252L169 245Z" fill="#c90076" stroke="#c90076"></path><path d="M169 245L145 252L175 321Z" fill="#a3086f" stroke="#a3086f"></path><path d="M672 164L631 177L685 197Z" fill="#200530" stroke="#200530"></path><path d="M672 164L638 145L631 177Z" fill="#4b0d4d" stroke="#4b0d4d"></path><path d="M101 557L83 588L131 608Z" fill="#c90076" stroke="#c90076"></path><path d="M35 511L83 588L101 557Z" fill="#6d0e5d" stroke="#6d0e5d"></path><path d="M699 184L739 267L768 256Z" fill="#5c0e55" stroke="#5c0e55"></path><path d="M768 256L739 267L765 274Z" fill="#b60473" stroke="#b60473"></path><path d="M780 284L768 256L765 274Z" fill="#5c0e55" stroke="#5c0e55"></path><path d="M814 646L733 635L733 675Z" fill="#a3086f" stroke="#a3086f"></path><path d="M814 646L754 575L733 635Z" fill="#4b0d4d" stroke="#4b0d4d"></path><path d="M280 95L304 160L316 150Z" fill="#c90076" stroke="#c90076"></path><path d="M245 169L202 166L265 232Z" fill="#3c0b44" stroke="#3c0b44"></path><path d="M591 821L606 839L595 796Z" fill="#7f0d64" stroke="#7f0d64"></path><path d="M497 900L523 819L460 831Z" fill="#7f0d64" stroke="#7f0d64"></path><path d="M606 839L676 804L595 796Z" fill="#c90076" stroke="#c90076"></path><path d="M675 764L779 775L684 722Z" fill="#2d093a" stroke="#2d093a"></path><path d="M835 553L847 505L812 504Z" fill="#7f0d64" stroke="#7f0d64"></path><path d="M842 374L834 367L786 427Z" fill="#c90076" stroke="#c90076"></path><path d="M525 74L427 85L466 117Z" fill="#b60473" stroke="#b60473"></path><path d="M380 105L294 94L316 150Z" fill="#4b0d4d" stroke="#4b0d4d"></path><path d="M258 835L340 861L350 792Z" fill="#3c0b44" stroke="#3c0b44"></path><path d="M417 831L420 899L443 833Z" fill="#910b6a" stroke="#910b6a"></path><path d="M443 833L420 899L460 831Z" fill="#200530" stroke="#200530"></path><path d="M99 288L87 326L175 321Z" fill="#2d093a" stroke="#2d093a"></path><path d="M86 461L35 511L101 557Z" fill="#2d093a" stroke="#2d093a"></path><path d="M799 698L733 675L715 696Z" fill="#5c0e55" stroke="#5c0e55"></path><path d="M900 565L900 456L847 505Z" fill="#6d0e5d" stroke="#6d0e5d"></path><path d="M842 374L786 427L868 420Z" fill="#200530" stroke="#200530"></path><path d="M807 347L810 280L780 284Z" fill="#200530" stroke="#200530"></path><path d="M780 284L810 280L768 256Z" fill="#2d093a" stroke="#2d093a"></path><path d="M252 146L202 166L245 169Z" fill="#2d093a" stroke="#2d093a"></path><path d="M145 252L99 288L175 321Z" fill="#a3086f" stroke="#a3086f"></path><path d="M187 812L204 797L169 800Z" fill="#7f0d64" stroke="#7f0d64"></path><path d="M261 784L258 835L350 792Z" fill="#3c0b44" stroke="#3c0b44"></path><path d="M103 751L149 649L116 638Z" fill="#c90076" stroke="#c90076"></path><path d="M110 247L99 288L145 252Z" fill="#910b6a" stroke="#910b6a"></path><path d="M868 420L786 427L830 485Z" fill="#2d093a" stroke="#2d093a"></path><path d="M900 301L810 280L807 347Z" fill="#200530" stroke="#200530"></path><path d="M438 23L415 78L427 85Z" fill="#2d093a" stroke="#2d093a"></path><path d="M427 85L415 78L380 105Z" fill="#2d093a" stroke="#2d093a"></path><path d="M252 146L243 86L202 166Z" fill="#a3086f" stroke="#a3086f"></path><path d="M249 838L258 835L261 784Z" fill="#2d093a" stroke="#2d093a"></path><path d="M202 166L185 176L265 232Z" fill="#4b0d4d" stroke="#4b0d4d"></path><path d="M150 107L182 177L185 176Z" fill="#b60473" stroke="#b60473"></path><path d="M185 176L182 177L169 245Z" fill="#7f0d64" stroke="#7f0d64"></path><path d="M606 839L675 822L676 804Z" fill="#2d093a" stroke="#2d093a"></path><path d="M676 804L700 806L675 764Z" fill="#200530" stroke="#200530"></path><path d="M675 822L700 806L676 804Z" fill="#c90076" stroke="#c90076"></path><path d="M779 775L799 698L715 696Z" fill="#5c0e55" stroke="#5c0e55"></path><path d="M833 258L810 280L900 301Z" fill="#3c0b44" stroke="#3c0b44"></path><path d="M779 185L710 154L699 184Z" fill="#6d0e5d" stroke="#6d0e5d"></path><path d="M182 177L148 206L169 245Z" fill="#910b6a" stroke="#910b6a"></path><path d="M204 797L249 838L261 784Z" fill="#a3086f" stroke="#a3086f"></path><path d="M331 900L348 900L340 861Z" fill="#3c0b44" stroke="#3c0b44"></path><path d="M565 71L525 74L529 111Z" fill="#4b0d4d" stroke="#4b0d4d"></path><path d="M529 111L525 74L480 125Z" fill="#2d093a" stroke="#2d093a"></path><path d="M565 71L536 153L638 145Z" fill="#2d093a" stroke="#2d093a"></path><path d="M-1 253L78 305L99 288Z" fill="#4b0d4d" stroke="#4b0d4d"></path><path d="M99 288L78 305L87 326Z" fill="#c90076" stroke="#c90076"></path><path d="M18 486L35 511L86 461Z" fill="#a3086f" stroke="#a3086f"></path><path d="M132 202L110 247L145 252Z" fill="#3c0b44" stroke="#3c0b44"></path><path d="M699 184L710 154L672 164Z" fill="#910b6a" stroke="#910b6a"></path><path d="M672 164L723 95L638 145Z" fill="#c90076" stroke="#c90076"></path><path d="M779 185L699 184L768 256Z" fill="#6d0e5d" stroke="#6d0e5d"></path><path d="M313 39L294 94L380 105Z" fill="#a3086f" stroke="#a3086f"></path><path d="M150 107L135 172L182 177Z" fill="#3c0b44" stroke="#3c0b44"></path><path d="M50 357L167 384L87 326Z" fill="#3c0b44" stroke="#3c0b44"></path><path d="M83 588L66 653L116 638Z" fill="#a3086f" stroke="#a3086f"></path><path d="M811 707L812 697L799 698Z" fill="#b60473" stroke="#b60473"></path><path d="M799 698L812 697L814 646Z" fill="#c90076" stroke="#c90076"></path><path d="M900 574L900 565L835 553Z" fill="#5c0e55" stroke="#5c0e55"></path><path d="M363 900L417 831L340 861Z" fill="#c90076" stroke="#c90076"></path><path d="M363 900L420 899L417 831Z" fill="#7f0d64" stroke="#7f0d64"></path><path d="M674 900L717 838L675 822Z" fill="#a3086f" stroke="#a3086f"></path><path d="M900 456L868 420L830 485Z" fill="#200530" stroke="#200530"></path><path d="M833 258L804 224L810 280Z" fill="#c90076" stroke="#c90076"></path><path d="M900 456L830 485L847 505Z" fill="#6d0e5d" stroke="#6d0e5d"></path><path d="M55 325L50 357L87 326Z" fill="#200530" stroke="#200530"></path><path d="M420 899L497 900L460 831Z" fill="#910b6a" stroke="#910b6a"></path><path d="M243 86L280 95L281 22Z" fill="#3c0b44" stroke="#3c0b44"></path><path d="M294 94L280 95L316 150Z" fill="#c90076" stroke="#c90076"></path><path d="M497 900L501 900L523 819Z" fill="#c90076" stroke="#c90076"></path><path d="M43 623L66 653L83 588Z" fill="#a3086f" stroke="#a3086f"></path><path d="M779 775L811 707L799 698Z" fill="#7f0d64" stroke="#7f0d64"></path><path d="M812 697L883 641L814 646Z" fill="#2d093a" stroke="#2d093a"></path><path d="M135 172L132 202L148 206Z" fill="#2d093a" stroke="#2d093a"></path><path d="M148 206L132 202L145 252Z" fill="#910b6a" stroke="#910b6a"></path><path d="M0 307L55 325L0 281Z" fill="#4b0d4d" stroke="#4b0d4d"></path><path d="M78 305L55 325L87 326Z" fill="#4b0d4d" stroke="#4b0d4d"></path><path d="M135 172L148 206L182 177Z" fill="#c90076" stroke="#c90076"></path><path d="M593 60L565 71L638 145Z" fill="#7f0d64" stroke="#7f0d64"></path><path d="M525 74L438 23L427 85Z" fill="#b60473" stroke="#b60473"></path><path d="M169 800L204 797L180 681Z" fill="#6d0e5d" stroke="#6d0e5d"></path><path d="M204 797L219 836L249 838Z" fill="#a3086f" stroke="#a3086f"></path><path d="M187 812L219 836L204 797Z" fill="#4b0d4d" stroke="#4b0d4d"></path><path d="M331 900L340 861L258 835Z" fill="#a3086f" stroke="#a3086f"></path><path d="M219 836L234 846L249 838Z" fill="#7f0d64" stroke="#7f0d64"></path><path d="M0 281L78 305L0 276Z" fill="#a3086f" stroke="#a3086f"></path><path d="M197 900L234 846L219 836Z" fill="#200530" stroke="#200530"></path><path d="M120 776L169 800L180 681Z" fill="#c90076" stroke="#c90076"></path><path d="M501 900L537 900L523 819Z" fill="#4b0d4d" stroke="#4b0d4d"></path><path d="M348 900L363 900L340 861Z" fill="#5c0e55" stroke="#5c0e55"></path><path d="M420 899L363 900L497 900Z" fill="#b60473" stroke="#b60473"></path><path d="M331 900L258 835L222 900Z" fill="#4b0d4d" stroke="#4b0d4d"></path><path d="M1 560L43 623L83 588Z" fill="#3c0b44" stroke="#3c0b44"></path><path d="M66 653L103 751L116 638Z" fill="#a3086f" stroke="#a3086f"></path><path d="M13 427L18 486L86 461Z" fill="#a3086f" stroke="#a3086f"></path><path d="M35 511L1 560L83 588Z" fill="#c90076" stroke="#c90076"></path><path d="M13 427L86 461L50 357Z" fill="#3c0b44" stroke="#3c0b44"></path><path d="M807 347L834 367L900 301Z" fill="#3c0b44" stroke="#3c0b44"></path><path d="M810 280L804 224L768 256Z" fill="#910b6a" stroke="#910b6a"></path><path d="M222 900L258 835L249 838Z" fill="#200530" stroke="#200530"></path><path d="M700 806L779 775L675 764Z" fill="#2d093a" stroke="#2d093a"></path><path d="M771 804L779 775L700 806Z" fill="#2d093a" stroke="#2d093a"></path><path d="M717 838L700 806L675 822Z" fill="#910b6a" stroke="#910b6a"></path><path d="M804 224L779 185L768 256Z" fill="#200530" stroke="#200530"></path><path d="M710 154L723 95L672 164Z" fill="#3c0b44" stroke="#3c0b44"></path><path d="M900 369L834 367L842 374Z" fill="#b60473" stroke="#b60473"></path><path d="M804 224L809 210L779 185Z" fill="#7f0d64" stroke="#7f0d64"></path><path d="M779 185L730 137L710 154Z" fill="#b60473" stroke="#b60473"></path><path d="M779 775L827 715L811 707Z" fill="#200530" stroke="#200530"></path><path d="M811 707L827 715L812 697Z" fill="#5c0e55" stroke="#5c0e55"></path><path d="M92 763L103 751L54 719Z" fill="#7f0d64" stroke="#7f0d64"></path><path d="M150 107L185 176L202 166Z" fill="#7f0d64" stroke="#7f0d64"></path><path d="M132 202L96 212L110 247Z" fill="#6d0e5d" stroke="#6d0e5d"></path><path d="M0 415L13 427L50 357Z" fill="#7f0d64" stroke="#7f0d64"></path><path d="M550 0L524 43L565 0Z" fill="#2d093a" stroke="#2d093a"></path><path d="M565 71L524 43L525 74Z" fill="#a3086f" stroke="#a3086f"></path><path d="M313 39L280 95L294 94Z" fill="#c90076" stroke="#c90076"></path><path d="M687 45L593 60L638 145Z" fill="#5c0e55" stroke="#5c0e55"></path><path d="M649 900L675 822L606 839Z" fill="#c90076" stroke="#c90076"></path><path d="M103 751L120 776L180 681Z" fill="#4b0d4d" stroke="#4b0d4d"></path><path d="M197 900L219 836L187 812Z" fill="#4b0d4d" stroke="#4b0d4d"></path><path d="M197 900L222 900L234 846Z" fill="#a3086f" stroke="#a3086f"></path><path d="M135 172L96 212L132 202Z" fill="#4b0d4d" stroke="#4b0d4d"></path><path d="M0 415L0 455L13 427Z" fill="#4b0d4d" stroke="#4b0d4d"></path><path d="M313 39L380 105L366 0Z" fill="#7f0d64" stroke="#7f0d64"></path><path d="M280 95L243 86L252 146Z" fill="#7f0d64" stroke="#7f0d64"></path><path d="M829 230L809 210L804 224Z" fill="#2d093a" stroke="#2d093a"></path><path d="M750 105L723 95L730 137Z" fill="#200530" stroke="#200530"></path><path d="M900 565L847 505L835 553Z" fill="#200530" stroke="#200530"></path><path d="M868 420L900 404L842 374Z" fill="#4b0d4d" stroke="#4b0d4d"></path><path d="M900 217L829 230L833 258Z" fill="#6d0e5d" stroke="#6d0e5d"></path><path d="M833 258L829 230L804 224Z" fill="#4b0d4d" stroke="#4b0d4d"></path><path d="M900 456L900 410L868 420Z" fill="#4b0d4d" stroke="#4b0d4d"></path><path d="M0 415L50 357L0 307Z" fill="#b60473" stroke="#b60473"></path><path d="M13 427L0 455L18 486Z" fill="#b60473" stroke="#b60473"></path><path d="M18 486L0 525L35 511Z" fill="#200530" stroke="#200530"></path><path d="M900 410L900 404L868 420Z" fill="#b60473" stroke="#b60473"></path><path d="M779 775L841 783L827 715Z" fill="#7f0d64" stroke="#7f0d64"></path><path d="M717 838L771 804L700 806Z" fill="#c90076" stroke="#c90076"></path><path d="M0 455L0 525L18 486Z" fill="#a3086f" stroke="#a3086f"></path><path d="M900 574L835 553L900 608Z" fill="#200530" stroke="#200530"></path><path d="M883 641L835 553L814 646Z" fill="#7f0d64" stroke="#7f0d64"></path><path d="M0 307L50 357L55 325Z" fill="#3c0b44" stroke="#3c0b44"></path><path d="M524 43L438 23L525 74Z" fill="#7f0d64" stroke="#7f0d64"></path><path d="M54 719L103 751L66 653Z" fill="#7f0d64" stroke="#7f0d64"></path><path d="M103 751L92 763L120 776Z" fill="#5c0e55" stroke="#5c0e55"></path><path d="M120 776L107 786L169 800Z" fill="#5c0e55" stroke="#5c0e55"></path><path d="M54 719L66 653L22 674Z" fill="#2d093a" stroke="#2d093a"></path><path d="M0 525L1 560L35 511Z" fill="#4b0d4d" stroke="#4b0d4d"></path><path d="M827 715L883 641L812 697Z" fill="#3c0b44" stroke="#3c0b44"></path><path d="M900 651L883 641L827 715Z" fill="#3c0b44" stroke="#3c0b44"></path><path d="M900 404L900 369L842 374Z" fill="#6d0e5d" stroke="#6d0e5d"></path><path d="M674 900L735 845L717 838Z" fill="#5c0e55" stroke="#5c0e55"></path><path d="M717 838L735 845L771 804Z" fill="#910b6a" stroke="#910b6a"></path><path d="M92 763L107 786L120 776Z" fill="#c90076" stroke="#c90076"></path><path d="M234 846L222 900L249 838Z" fill="#4b0d4d" stroke="#4b0d4d"></path><path d="M366 0L380 105L415 78Z" fill="#6d0e5d" stroke="#6d0e5d"></path><path d="M537 900L649 900L606 839Z" fill="#b60473" stroke="#b60473"></path><path d="M649 900L651 900L675 822Z" fill="#b60473" stroke="#b60473"></path><path d="M22 674L66 653L43 623Z" fill="#200530" stroke="#200530"></path><path d="M92 763L62 834L107 786Z" fill="#200530" stroke="#200530"></path><path d="M883 641L900 608L835 553Z" fill="#4b0d4d" stroke="#4b0d4d"></path><path d="M1 560L0 603L43 623Z" fill="#2d093a" stroke="#2d093a"></path><path d="M0 525L0 603L1 560Z" fill="#a3086f" stroke="#a3086f"></path><path d="M798 152L730 137L779 185Z" fill="#b60473" stroke="#b60473"></path><path d="M730 137L723 95L710 154Z" fill="#4b0d4d" stroke="#4b0d4d"></path><path d="M798 152L779 185L803 154Z" fill="#7f0d64" stroke="#7f0d64"></path><path d="M0 663L22 674L43 623Z" fill="#b60473" stroke="#b60473"></path><path d="M651 900L674 900L675 822Z" fill="#200530" stroke="#200530"></path><path d="M803 154L809 210L900 169Z" fill="#a3086f" stroke="#a3086f"></path><path d="M803 154L779 185L809 210Z" fill="#910b6a" stroke="#910b6a"></path><path d="M197 900L187 812L116 900Z" fill="#2d093a" stroke="#2d093a"></path><path d="M900 745L900 651L827 715Z" fill="#2d093a" stroke="#2d093a"></path><path d="M883 641L900 651L900 608Z" fill="#4b0d4d" stroke="#4b0d4d"></path><path d="M900 198L809 210L829 230Z" fill="#4b0d4d" stroke="#4b0d4d"></path><path d="M798 152L750 105L730 137Z" fill="#6d0e5d" stroke="#6d0e5d"></path><path d="M750 64L750 105L831 120Z" fill="#5c0e55" stroke="#5c0e55"></path><path d="M135 172L34 123L96 212Z" fill="#c90076" stroke="#c90076"></path><path d="M243 86L150 107L202 166Z" fill="#6d0e5d" stroke="#6d0e5d"></path><path d="M221 44L150 107L243 86Z" fill="#5c0e55" stroke="#5c0e55"></path><path d="M524 43L466 0L438 23Z" fill="#7f0d64" stroke="#7f0d64"></path><path d="M438 23L378 0L415 78Z" fill="#6d0e5d" stroke="#6d0e5d"></path><path d="M528 0L466 0L524 43Z" fill="#b60473" stroke="#b60473"></path><path d="M528 0L524 43L550 0Z" fill="#a3086f" stroke="#a3086f"></path><path d="M900 369L900 301L834 367Z" fill="#5c0e55" stroke="#5c0e55"></path><path d="M78 305L-1 253L0 276Z" fill="#c90076" stroke="#c90076"></path><path d="M0 281L55 325L78 305Z" fill="#5c0e55" stroke="#5c0e55"></path><path d="M466 0L378 0L438 23Z" fill="#5c0e55" stroke="#5c0e55"></path><path d="M313 39L281 22L280 95Z" fill="#a3086f" stroke="#a3086f"></path><path d="M565 71L593 60L565 0Z" fill="#a3086f" stroke="#a3086f"></path><path d="M524 43L565 71L565 0Z" fill="#6d0e5d" stroke="#6d0e5d"></path><path d="M0 603L0 663L43 623Z" fill="#6d0e5d" stroke="#6d0e5d"></path><path d="M22 674L0 704L54 719Z" fill="#2d093a" stroke="#2d093a"></path><path d="M54 719L8 787L92 763Z" fill="#b60473" stroke="#b60473"></path><path d="M378 0L366 0L415 78Z" fill="#7f0d64" stroke="#7f0d64"></path><path d="M321 0L281 22L313 39Z" fill="#a3086f" stroke="#a3086f"></path><path d="M565 0L593 60L644 19Z" fill="#200530" stroke="#200530"></path><path d="M116 900L169 800L107 786Z" fill="#5c0e55" stroke="#5c0e55"></path><path d="M116 900L187 812L169 800Z" fill="#5c0e55" stroke="#5c0e55"></path><path d="M845 888L841 783L771 804Z" fill="#c90076" stroke="#c90076"></path><path d="M771 804L841 783L779 775Z" fill="#7f0d64" stroke="#7f0d64"></path><path d="M877 785L841 783L879 853Z" fill="#2d093a" stroke="#2d093a"></path><path d="M687 45L638 145L723 95Z" fill="#2d093a" stroke="#2d093a"></path><path d="M281 22L221 44L243 86Z" fill="#6d0e5d" stroke="#6d0e5d"></path><path d="M99 288L110 247L-1 253Z" fill="#3c0b44" stroke="#3c0b44"></path><path d="M750 64L723 95L750 105Z" fill="#7f0d64" stroke="#7f0d64"></path><path d="M750 64L687 45L723 95Z" fill="#910b6a" stroke="#910b6a"></path><path d="M-1 253L110 247L96 212Z" fill="#200530" stroke="#200530"></path><path d="M366 0L321 0L313 39Z" fill="#c90076" stroke="#c90076"></path><path d="M281 22L224 0L221 44Z" fill="#5c0e55" stroke="#5c0e55"></path><path d="M687 45L644 19L593 60Z" fill="#a3086f" stroke="#a3086f"></path><path d="M0 663L0 704L22 674Z" fill="#910b6a" stroke="#910b6a"></path><path d="M0 165L-1 253L96 212Z" fill="#c90076" stroke="#c90076"></path><path d="M0 276L-1 253L0 281Z" fill="#7f0d64" stroke="#7f0d64"></path><path d="M0 281L-1 253L0 307Z" fill="#3c0b44" stroke="#3c0b44"></path><path d="M0 307L-1 253L0 415Z" fill="#c90076" stroke="#c90076"></path><path d="M0 415L-1 253L0 455Z" fill="#c90076" stroke="#c90076"></path><path d="M0 455L-1 253L0 525Z" fill="#910b6a" stroke="#910b6a"></path><path d="M0 525L-1 253L0 603Z" fill="#5c0e55" stroke="#5c0e55"></path><path d="M0 603L-1 253L0 663Z" fill="#c90076" stroke="#c90076"></path><path d="M0 663L-1 253L0 704Z" fill="#5c0e55" stroke="#5c0e55"></path><path d="M831 120L750 105L798 152Z" fill="#c90076" stroke="#c90076"></path><path d="M687 45L696 0L644 19Z" fill="#5c0e55" stroke="#5c0e55"></path><path d="M831 120L798 152L803 154Z" fill="#910b6a" stroke="#910b6a"></path><path d="M900 301L900 217L833 258Z" fill="#b60473" stroke="#b60473"></path><path d="M877 785L900 745L841 783Z" fill="#6d0e5d" stroke="#6d0e5d"></path><path d="M841 783L900 745L827 715Z" fill="#a3086f" stroke="#a3086f"></path><path d="M221 44L128 72L150 107Z" fill="#2d093a" stroke="#2d093a"></path><path d="M150 107L114 80L135 172Z" fill="#b60473" stroke="#b60473"></path><path d="M175 0L128 72L221 44Z" fill="#4b0d4d" stroke="#4b0d4d"></path><path d="M797 900L771 804L735 845Z" fill="#4b0d4d" stroke="#4b0d4d"></path><path d="M873 130L831 120L803 154Z" fill="#c90076" stroke="#c90076"></path><path d="M-1 253L0 745L0 704Z" fill="#c90076" stroke="#c90076"></path><path d="M0 704L0 745L54 719Z" fill="#4b0d4d" stroke="#4b0d4d"></path><path d="M128 72L114 80L150 107Z" fill="#200530" stroke="#200530"></path><path d="M8 787L62 834L92 763Z" fill="#b60473" stroke="#b60473"></path><path d="M900 217L900 198L829 230Z" fill="#200530" stroke="#200530"></path><path d="M877 785L900 766L900 745Z" fill="#a3086f" stroke="#a3086f"></path><path d="M321 0L224 0L281 22Z" fill="#3c0b44" stroke="#3c0b44"></path><path d="M107 6L70 85L114 80Z" fill="#6d0e5d" stroke="#6d0e5d"></path><path d="M62 834L116 900L107 786Z" fill="#5c0e55" stroke="#5c0e55"></path><path d="M724 5L687 45L750 64Z" fill="#5c0e55" stroke="#5c0e55"></path><path d="M724 5L696 0L687 45Z" fill="#910b6a" stroke="#910b6a"></path><path d="M644 19L696 0L565 0Z" fill="#200530" stroke="#200530"></path><path d="M62 834L114 900L116 900Z" fill="#7f0d64" stroke="#7f0d64"></path><path d="M0 745L8 787L54 719Z" fill="#5c0e55" stroke="#5c0e55"></path><path d="M62 834L63 880L114 900Z" fill="#4b0d4d" stroke="#4b0d4d"></path><path d="M674 900L797 900L735 845Z" fill="#7f0d64" stroke="#7f0d64"></path><path d="M877 785L879 853L900 766Z" fill="#7f0d64" stroke="#7f0d64"></path><path d="M900 198L900 169L809 210Z" fill="#b60473" stroke="#b60473"></path><path d="M739 0L724 5L750 64Z" fill="#c90076" stroke="#c90076"></path><path d="M900 169L873 130L803 154Z" fill="#7f0d64" stroke="#7f0d64"></path><path d="M739 0L750 64L750 0Z" fill="#b60473" stroke="#b60473"></path><path d="M107 6L114 80L128 72Z" fill="#910b6a" stroke="#910b6a"></path><path d="M114 80L70 85L135 172Z" fill="#b60473" stroke="#b60473"></path><path d="M70 85L34 123L135 172Z" fill="#3c0b44" stroke="#3c0b44"></path><path d="M34 123L0 165L96 212Z" fill="#c90076" stroke="#c90076"></path><path d="M224 0L175 0L221 44Z" fill="#910b6a" stroke="#910b6a"></path><path d="M900 169L900 149L873 130Z" fill="#4b0d4d" stroke="#4b0d4d"></path><path d="M750 0L750 64L795 0Z" fill="#3c0b44" stroke="#3c0b44"></path><path d="M0 869L63 880L62 834Z" fill="#b60473" stroke="#b60473"></path><path d="M34 123L0 154L0 165Z" fill="#a3086f" stroke="#a3086f"></path><path d="M0 165L0 154L-1 253Z" fill="#2d093a" stroke="#2d093a"></path><path d="M10 109L0 154L34 123Z" fill="#4b0d4d" stroke="#4b0d4d"></path><path d="M750 64L831 120L856 83Z" fill="#5c0e55" stroke="#5c0e55"></path><path d="M724 5L739 0L696 0Z" fill="#7f0d64" stroke="#7f0d64"></path><path d="M175 0L164 0L128 72Z" fill="#7f0d64" stroke="#7f0d64"></path><path d="M797 900L845 888L771 804Z" fill="#910b6a" stroke="#910b6a"></path><path d="M856 83L831 120L873 130Z" fill="#c90076" stroke="#c90076"></path><path d="M829 900L845 888L797 900Z" fill="#c90076" stroke="#c90076"></path><path d="M845 888L879 853L841 783Z" fill="#a3086f" stroke="#a3086f"></path><path d="M900 50L856 83L873 130Z" fill="#910b6a" stroke="#910b6a"></path><path d="M8 787L0 825L62 834Z" fill="#4b0d4d" stroke="#4b0d4d"></path><path d="M0 745L0 825L8 787Z" fill="#a3086f" stroke="#a3086f"></path><path d="M-1 253L0 825L0 745Z" fill="#a3086f" stroke="#a3086f"></path><path d="M0 81L10 109L3 71Z" fill="#5c0e55" stroke="#5c0e55"></path><path d="M70 85L10 109L34 123Z" fill="#200530" stroke="#200530"></path><path d="M0 869L43 900L63 880Z" fill="#910b6a" stroke="#910b6a"></path><path d="M63 880L43 900L114 900Z" fill="#c90076" stroke="#c90076"></path><path d="M164 0L107 6L128 72Z" fill="#910b6a" stroke="#910b6a"></path><path d="M856 83L795 0L750 64Z" fill="#7f0d64" stroke="#7f0d64"></path><path d="M164 0L102 0L107 6Z" fill="#a3086f" stroke="#a3086f"></path><path d="M107 6L66 0L70 85Z" fill="#200530" stroke="#200530"></path><path d="M-1 253L0 869L0 825Z" fill="#c90076" stroke="#c90076"></path><path d="M0 825L0 869L62 834Z" fill="#5c0e55" stroke="#5c0e55"></path><path d="M829 900L877 900L845 888Z" fill="#4b0d4d" stroke="#4b0d4d"></path><path d="M845 888L877 900L879 853Z" fill="#b60473" stroke="#b60473"></path><path d="M879 853L900 900L900 766Z" fill="#3c0b44" stroke="#3c0b44"></path><path d="M3 71L10 109L70 85Z" fill="#a3086f" stroke="#a3086f"></path><path d="M10 109L0 81L0 154Z" fill="#910b6a" stroke="#910b6a"></path><path d="M0 154L0 81L-1 253Z" fill="#3c0b44" stroke="#3c0b44"></path><path d="M0 50L3 71L70 85Z" fill="#200530" stroke="#200530"></path><path d="M877 900L900 900L879 853Z" fill="#910b6a" stroke="#910b6a"></path><path d="M102 0L66 0L107 6Z" fill="#2d093a" stroke="#2d093a"></path><path d="M-1 253L0 900L0 869Z" fill="#7f0d64" stroke="#7f0d64"></path><path d="M0 869L0 900L43 900Z" fill="#6d0e5d" stroke="#6d0e5d"></path><path d="M900 149L900 50L873 130Z" fill="#c90076" stroke="#c90076"></path><path d="M856 83L869 0L795 0Z" fill="#7f0d64" stroke="#7f0d64"></path><path d="M66 0L0 50L70 85Z" fill="#2d093a" stroke="#2d093a"></path><path d="M3 71L0 50L0 81Z" fill="#a3086f" stroke="#a3086f"></path><path d="M0 81L0 50L-1 253Z" fill="#200530" stroke="#200530"></path><path d="M900 50L869 0L856 83Z" fill="#910b6a" stroke="#910b6a"></path><path d="M900 50L900 0L869 0Z" fill="#2d093a" stroke="#2d093a"></path><path d="M66 0L0 0L0 50Z" fill="#c90076" stroke="#c90076"></path><path d="M0 50L0 0L-1 253Z" fill="#5c0e55" stroke="#5c0e55"></path></g></svg>